<?xml version="1.0" encoding="UTF-8"?>
<svg xmlns="http://www.w3.org/2000/svg" viewBox="0 0 720 392" width="720" height="392" role="img" font-family="system-ui, -apple-system, 'Segoe UI', Roboto, sans-serif">
  <title>Live in the app — 3 questions across the 3 architectures (500-article corpus)</title>
  <desc>Three questions asked in the app on Simple Wikipedia (500 articles) with a small local LLM (llama3.2). Retrieval is deterministic. For the keyword query only Hybrid's context is clean enough (3 of 5 chunks on the right month) to answer Titanic; Vector and Graph grab a noisier April and misread it as LSD 1943. The semantic ship question is answered by all three. For the entity query Vector and Hybrid retrieve 5 of 5 on-topic documents, but the entity-graph pulls unrelated entities (June, China, Islamic world) and retrieves only 2 of 5, so it fails. Same pattern as the BEIR results: Hybrid robust, the entity boost adds noise on the larger corpus.</desc>

  <rect x="0.5" y="0.5" width="719" height="391" rx="16" fill="#ffffff" stroke="#e5e7eb"/>

  <text x="24" y="32" font-size="16" font-weight="600" fill="#1f2937">Live in the app — does retrieval reach the right answer?</text>
  <text x="24" y="52" font-size="11.5" fill="#6b7280">3 questions × 3 architectures · Simple Wikipedia (500 articles) · small local LLM (llama3.2)</text>

  <rect x="343" y="70" width="118" height="24" rx="6" fill="#3b82f6"/>
  <text x="402" y="86" text-anchor="middle" font-size="12.5" font-weight="600" fill="#ffffff">Vector</text>
  <rect x="475" y="70" width="118" height="24" rx="6" fill="#22c55e"/>
  <text x="534" y="86" text-anchor="middle" font-size="12.5" font-weight="600" fill="#ffffff">Hybrid</text>
  <rect x="607" y="70" width="89" height="24" rx="6" fill="#a855f7"/>
  <text x="651" y="86" text-anchor="middle" font-size="12.5" font-weight="600" fill="#ffffff">Graph</text>

  <line x1="24" y1="104" x2="696" y2="104" stroke="#e5e7eb"/>

  <text x="24" y="126" font-size="12.5" fill="#374151">What happened in April 1912?</text>
  <text x="24" y="141" font-size="10" fill="#9ca3af">keyword · exact token (date)</text>
  <line x1="394" y1="119" x2="382" y2="131" stroke="#dc2626" stroke-width="3" stroke-linecap="round"/>
  <line x1="382" y1="119" x2="394" y2="131" stroke="#dc2626" stroke-width="3" stroke-linecap="round"/>
  <polyline points="528,125 533,130 543,119" fill="none" stroke="#16a34a" stroke-width="3" stroke-linecap="round" stroke-linejoin="round"/>
  <line x1="657" y1="119" x2="645" y2="131" stroke="#dc2626" stroke-width="3" stroke-linecap="round"/>
  <line x1="645" y1="119" x2="657" y2="131" stroke="#dc2626" stroke-width="3" stroke-linecap="round"/>

  <line x1="24" y1="153" x2="696" y2="153" stroke="#f3f4f6"/>

  <text x="24" y="175" font-size="12.5" fill="#374151">Which famous ship sank after an iceberg?</text>
  <text x="24" y="190" font-size="10" fill="#9ca3af">semantic · paraphrase</text>
  <polyline points="397,174 402,179 412,168" fill="none" stroke="#16a34a" stroke-width="3" stroke-linecap="round" stroke-linejoin="round"/>
  <polyline points="528,174 533,179 543,168" fill="none" stroke="#16a34a" stroke-width="3" stroke-linecap="round" stroke-linejoin="round"/>
  <polyline points="645,174 650,179 660,168" fill="none" stroke="#16a34a" stroke-width="3" stroke-linecap="round" stroke-linejoin="round"/>

  <line x1="24" y1="202" x2="696" y2="202" stroke="#f3f4f6"/>

  <text x="24" y="224" font-size="12.5" fill="#374151">What is the capital of Afghanistan?</text>
  <text x="24" y="239" font-size="10" fill="#9ca3af">entity · Graph retrieves only 2/5 on-topic</text>
  <polyline points="397,223 402,228 412,217" fill="none" stroke="#16a34a" stroke-width="3" stroke-linecap="round" stroke-linejoin="round"/>
  <polyline points="528,223 533,228 543,217" fill="none" stroke="#16a34a" stroke-width="3" stroke-linecap="round" stroke-linejoin="round"/>
  <line x1="662" y1="217" x2="650" y2="229" stroke="#dc2626" stroke-width="3" stroke-linecap="round"/>
  <line x1="650" y1="217" x2="662" y2="229" stroke="#dc2626" stroke-width="3" stroke-linecap="round"/>

  <rect x="24" y="258" width="672" height="112" rx="10" fill="#f9fafb" stroke="#e5e7eb"/>
  <text x="38" y="280" font-size="12" font-weight="600" fill="#374151">Takeaway — Hybrid answers all three; the entity-graph degrades at scale</text>
  <text x="38" y="300" font-size="10.5" fill="#6b7280">Retrieval is deterministic. For “April 1912”, Hybrid's context is cleanest (3/5 chunks on the right month) and it</text>
  <text x="38" y="317" font-size="10.5" fill="#6b7280">alone answers Titanic; Vector and Graph grab a noisier April and misread it as “LSD, 1943”.</text>
  <text x="38" y="334" font-size="10.5" fill="#6b7280">For “Afghanistan”, Vector and Hybrid retrieve 5/5 on-topic, but the entity-graph pulls June, China, Islamic</text>
  <text x="38" y="351" font-size="10.5" fill="#6b7280">world (2/5) and fails. Same pattern as the BEIR results: Hybrid robust, the entity boost adds noise at scale.</text>
</svg>
