<?xml version="1.0" encoding="UTF-8"?>
<svg xmlns="http://www.w3.org/2000/svg" viewBox="0 0 720 372" width="720" height="372" role="img" font-family="system-ui, -apple-system, 'Segoe UI', Roboto, sans-serif">
  <title>Live in the app — 3 questions across the 3 architectures</title>
  <desc>Three questions asked live in the app on Simple Wikipedia with a small local LLM. On the keyword question all three retrieve the answer chunk, but only Hybrid (clean all-April context) lets the model answer; Vector and Graph also pull December and August events and the noise breaks generation. The semantic and entity questions are answered by all three.</desc>

  <rect x="0.5" y="0.5" width="719" height="371" rx="16" fill="#ffffff" stroke="#e5e7eb"/>

  <text x="24" y="32" font-size="16" font-weight="600" fill="#1f2937">Live in the app — does retrieval reach the right answer?</text>
  <text x="24" y="52" font-size="11.5" fill="#6b7280">3 questions × 3 architectures · Simple Wikipedia (100 articles) · small local LLM (llama3.2)</text>

  <rect x="343" y="70" width="118" height="24" rx="6" fill="#3b82f6"/>
  <text x="402" y="86" text-anchor="middle" font-size="12.5" font-weight="600" fill="#ffffff">Vector</text>
  <rect x="475" y="70" width="118" height="24" rx="6" fill="#22c55e"/>
  <text x="534" y="86" text-anchor="middle" font-size="12.5" font-weight="600" fill="#ffffff">Hybrid</text>
  <rect x="607" y="70" width="89" height="24" rx="6" fill="#a855f7"/>
  <text x="651" y="86" text-anchor="middle" font-size="12.5" font-weight="600" fill="#ffffff">Graph</text>

  <line x1="24" y1="104" x2="696" y2="104" stroke="#e5e7eb"/>

  <text x="24" y="126" font-size="12.5" fill="#374151">What happened in April 1912?</text>
  <text x="24" y="141" font-size="10" fill="#9ca3af">keyword · exact token (date)</text>
  <line x1="394" y1="119" x2="382" y2="131" stroke="#dc2626" stroke-width="3" stroke-linecap="round"/>
  <line x1="382" y1="119" x2="394" y2="131" stroke="#dc2626" stroke-width="3" stroke-linecap="round"/>
  <polyline points="528,125 533,130 543,119" fill="none" stroke="#16a34a" stroke-width="3" stroke-linecap="round" stroke-linejoin="round"/>
  <line x1="657" y1="119" x2="645" y2="131" stroke="#dc2626" stroke-width="3" stroke-linecap="round"/>
  <line x1="645" y1="119" x2="657" y2="131" stroke="#dc2626" stroke-width="3" stroke-linecap="round"/>

  <line x1="24" y1="153" x2="696" y2="153" stroke="#f3f4f6"/>

  <text x="24" y="175" font-size="12.5" fill="#374151">Which famous ship sank after an iceberg?</text>
  <text x="24" y="190" font-size="10" fill="#9ca3af">semantic · paraphrase</text>
  <polyline points="397,174 402,179 412,168" fill="none" stroke="#16a34a" stroke-width="3" stroke-linecap="round" stroke-linejoin="round"/>
  <polyline points="528,174 533,179 543,168" fill="none" stroke="#16a34a" stroke-width="3" stroke-linecap="round" stroke-linejoin="round"/>
  <polyline points="645,174 650,179 660,168" fill="none" stroke="#16a34a" stroke-width="3" stroke-linecap="round" stroke-linejoin="round"/>

  <line x1="24" y1="202" x2="696" y2="202" stroke="#f3f4f6"/>

  <text x="24" y="224" font-size="12.5" fill="#374151">What is the capital of Afghanistan?</text>
  <text x="24" y="239" font-size="10" fill="#9ca3af">entity · Graph shows shared entities</text>
  <polyline points="397,223 402,228 412,217" fill="none" stroke="#16a34a" stroke-width="3" stroke-linecap="round" stroke-linejoin="round"/>
  <polyline points="528,223 533,228 543,217" fill="none" stroke="#16a34a" stroke-width="3" stroke-linecap="round" stroke-linejoin="round"/>
  <polyline points="645,223 650,228 660,217" fill="none" stroke="#16a34a" stroke-width="3" stroke-linecap="round" stroke-linejoin="round"/>

  <rect x="24" y="262" width="672" height="92" rx="10" fill="#f9fafb" stroke="#e5e7eb"/>
  <text x="38" y="285" font-size="12" font-weight="600" fill="#374151">Takeaway — retrieval precision drives answer quality</text>
  <text x="38" y="306" font-size="11.5" fill="#6b7280">All three retrieve the answer chunk. On the keyword question only Hybrid answers: its context is</text>
  <text x="38" y="324" font-size="11.5" fill="#6b7280">clean (all April), while Vector and Graph also pull December/August events — the noise confuses</text>
  <text x="38" y="342" font-size="11.5" fill="#6b7280">the small model into “not enough info”. Easy semantic/entity questions are answered by all three.</text>
</svg>
